<?xml version="1.0" standalone="no"?>
<!DOCTYPE svg PUBLIC "-//W3C//DTD SVG 20010904//EN"
 "http://www.w3.org/TR/2001/REC-SVG-20010904/DTD/svg10.dtd">
<svg version="1.0" xmlns="http://www.w3.org/2000/svg"
 width="97.000000pt" height="52.000000pt" viewBox="0 0 97.000000 52.000000"
 preserveAspectRatio="xMidYMid meet">

<g transform="translate(0.000000,52.000000) scale(0.100000,-0.100000)"
fill="#000000" stroke="none">
<path d="M182 454 c-32 -22 -27 -34 12 -34 19 0 45 -4 58 -9 55 -20 78 -22 78
-6 0 9 -11 27 -25 40 -29 29 -88 34 -123 9z"/>
<path d="M243 190 c0 -30 2 -43 4 -27 2 15 2 39 0 55 -2 15 -4 2 -4 -28z"/>
<path d="M766 162 c-3 -6 -1 -14 5 -17 15 -10 25 3 12 16 -7 7 -13 7 -17 1z"/>
<path d="M519 144 c-16 -20 -1 -48 30 -52 11 -2 21 -8 21 -13 0 -7 -12 -8 -30
-4 -31 7 -39 -2 -18 -23 15 -15 51 -15 66 0 22 22 14 48 -18 59 -16 6 -30 15
-30 20 0 13 24 11 38 -3 17 -17 28 -2 12 17 -16 20 -54 19 -71 -1z"/>
<path d="M712 103 c2 -44 7 -58 18 -58 11 0 16 14 18 58 3 52 1 57 -18 57 -19
0 -21 -5 -18 -57z"/>
<path d="M860 145 c0 -8 -9 -15 -20 -15 -27 0 -45 -36 -32 -65 8 -18 18 -23
46 -22 l36 1 0 58 c0 45 -3 58 -15 58 -8 0 -15 -7 -15 -15z m0 -54 c0 -11 -4
-22 -9 -25 -11 -7 -23 22 -15 35 9 16 24 10 24 -10z"/>
<path d="M230 121 c0 -5 6 -12 13 -14 10 -4 10 -6 0 -6 -19 -1 -16 -51 2 -51
16 0 20 35 9 64 -7 17 -24 22 -24 7z"/>
<path d="M620 110 c-15 -29 -3 -59 26 -66 30 -8 54 11 54 40 0 46 -59 64 -80
26z m50 -19 c0 -23 -16 -36 -25 -21 -9 14 1 40 15 40 5 0 10 -9 10 -19z"/>
<path d="M760 85 c0 -33 4 -45 15 -45 11 0 15 12 15 45 0 33 -4 45 -15 45 -11
0 -15 -12 -15 -45z"/>
<path d="M912 58 c6 -18 28 -21 28 -4 0 9 -7 16 -16 16 -9 0 -14 -5 -12 -12z"/>
</g>
</svg>
